Coordinates
version=1
nRows=20
nColumns=34
inDegrees=yes

Units are S.I. units (second, meters, Newtons, ...)
If the header above contains a line with 'inDegrees', this indicates whether rotational values are in degrees (yes) or radians (no).

endheader
time	pelvis_tilt	pelvis_list	pelvis_rotation	pelvis_tx	pelvis_ty	pelvis_tz	hip_flexion_r	hip_adduction_r	hip_rotation_r	knee_angle_r	ankle_angle_r	subtalar_angle_r	mtp_angle_r	hip_flexion_l	hip_adduction_l	hip_rotation_l	knee_angle_l	ankle_angle_l	subtalar_angle_l	mtp_angle_l	lumbar_extension	lumbar_bending	lumbar_rotation	arm_flex_r	arm_add_r	arm_rot_r	elbow_flex_r	pro_sup_r	arm_flex_l	arm_add_l	arm_rot_l	elbow_flex_l	pro_sup_l
      5.56666670	     10.25860380	      0.40846401	     -8.26546858	      0.66598855	      0.79158001	      0.04995935	     14.24477011	      4.88261459	      6.52654255	     62.23082519	     27.75873648	    -20.62988025	      0.00000000	     21.01012858	      4.40359315	      2.96547403	     62.46080729	     19.31998885	    -23.27696413	      0.00000000	    -10.79620482	      5.53367246	      1.92199421	      6.47513248	    -12.92543021	     72.37102652	     15.85907911	     27.51505566	     -1.04004937	    -12.33061482	     21.74044852	     34.80383635	     50.31333782
      5.58333330	      9.86477647	      0.51058286	     -8.51404011	      0.65946634	      0.79025412	      0.04429325	     15.41626130	      3.96274999	      5.64424239	     62.71356558	     27.75859384	    -18.48054601	      0.00000000	     22.35139366	      5.03061912	      3.34155555	     63.06153333	     18.32337280	    -25.04192734	      0.00000000	    -10.92189697	      5.60216573	      2.31974260	      7.43965051	    -12.53607388	     72.00159223	     15.60453634	     27.88913991	     -0.30228253	    -11.49751383	     23.74122211	     32.71462252	     50.31646239
      5.60000000	      9.68083929	      0.57869405	     -8.52515815	      0.65446745	      0.79497339	      0.04470405	     15.27559282	      2.84639176	      4.54239715	     61.50928362	     27.91717071	    -16.24060178	      0.00000000	     22.49049572	      5.45006418	      3.94713755	     62.11535478	     17.22204371	    -26.08261528	      0.00000000	    -10.81353331	      5.70756438	      2.28930423	      8.39499869	    -12.40298933	     71.57726377	     15.55715703	     28.16128704	     -0.42234758	    -10.51830137	     25.31386229	     30.60225230	     50.17670849
      5.61666670	      9.24468962	      0.81641167	     -8.75704703	      0.64856142	      0.80392763	      0.04261150	     14.86517437	      1.77901766	      3.62367910	     58.94344836	     27.27759093	    -14.20435783	      0.00000000	     21.99479702	      5.61318064	      4.17687685	     59.48772807	     15.62189954	    -26.57657239	      0.00000000	    -10.56150902	      5.50227391	      2.56717876	      9.12043178	    -12.08644056	     70.94883469	     15.57687104	     28.58391975	     -0.20656384	     -9.75807268	     27.26958962	     28.22553475	     49.88010318
      5.63333330	      8.84940530	      0.97645925	     -8.66767086	      0.63734271	      0.81146052	      0.04863103	     14.43315619	      1.46404886	      2.77657095	     56.01276472	     26.62540675	    -13.13014827	      0.00000000	     21.33312463	      5.13530897	      4.18269334	     56.13904275	     14.22799120	    -26.31196877	      0.00000000	    -10.75997163	      5.12473578	      2.53314382	     10.15834342	    -11.72740101	     70.14318365	     15.84779888	     28.92154770	     -0.51833038	     -9.30222198	     28.90971391	     26.81381357	     49.63343209
      5.65000000	      8.11555800	      1.08351104	     -8.33763958	      0.62433312	      0.81691597	      0.04902617	     14.75488358	      1.57202878	      2.19175350	     53.39883349	     24.93583309	    -13.95744288	      0.00000000	     21.35615627	      4.52015845	      4.08791777	     53.06765942	     13.27785143	    -25.97292027	      0.00000000	    -10.78349552	      4.77196962	      3.05035328	     10.42585183	    -11.47560117	     67.60861881	     16.41742375	     29.97102549	      0.13560138	     -9.10981500	     32.41580063	     24.97998317	     48.78206525
      5.66666670	      7.00558781	      1.54035512	     -8.18553648	      0.61703686	      0.81512936	      0.04629905	     16.13602505	      1.14986912	      1.89498399	     52.14054260	     25.51245332	    -13.48036794	      0.00000000	     22.49378741	      4.52633509	      3.94127720	     51.31968483	     12.91854535	    -25.31339227	      0.00000000	    -10.67018931	      4.01529742	      3.63258961	     10.53607044	    -11.29370105	     61.07258572	     17.67785047	     34.15390136	      1.31068443	     -9.68042312	     37.92137349	     24.09736263	     45.13106594
      5.68333330	      5.86389003	      1.65065096	     -7.71897731	      0.60453503	      0.82443865	      0.04750571	     17.19423919	      1.24591788	      1.38806191	     49.77157046	     24.42590779	    -14.55926714	      0.00000000	     23.34831603	      4.33856688	      4.51297399	     48.98212469	     11.57164282	    -25.51387554	      0.00000000	    -10.58161419	      3.58249440	      2.72171331	     11.91141525	    -10.81361105	     60.65158588	     18.34294840	     34.57889316	      1.26948421	     -9.99488378	     38.13398744	     23.71773399	     44.88041319
      5.70000000	      4.33245457	      1.50332772	     -7.31645156	      0.58735879	      0.83321850	      0.04921795	     18.38005602	      2.04178645	      1.49939858	     46.42478306	     23.01734534	    -15.25362267	      0.00000000	     24.76806896	      3.81779630	      5.14332189	     46.62455921	     10.26520435	    -25.88893502	      0.00000000	    -10.46254688	      3.41272163	      2.27991211	     13.10375579	    -10.51530428	     59.80242299	     19.16906537	     35.09984556	      1.65451971	    -10.43576376	     38.54632838	     23.75005878	     44.70206897
      5.71666670	      3.22893016	      1.54197839	     -7.14844989	      0.57548143	      0.84586798	      0.04906404	     18.41047440	      2.49176452	      1.92798826	     42.00435042	     20.07140111	    -16.46837537	      0.00000000	     25.07890003	      3.52961841	      5.54921799	     43.52658525	      8.25324562	    -26.51544418	      0.00000000	    -10.61432745	      2.88321954	      2.67360286	     13.61620200	    -10.31108865	     56.62895131	     20.36162144	     37.10274672	      2.59986705	    -10.95555303	     39.89380901	     23.84921631	     44.23171346
      5.73333330	      1.93574592	      1.51639328	     -6.98694209	      0.56603694	      0.85258014	      0.04907430	     18.63890188	      2.80995298	      2.23165600	     38.12047773	     18.58876067	    -15.40572905	      0.00000000	     25.44567174	      3.15760782	      5.78715862	     40.78468522	      7.81159667	    -26.04912725	      0.00000000	    -10.30053117	      2.69197875	      2.46302996	     14.60634536	     -9.96508440	     56.33027836	     20.77323807	     37.22701026	      2.86397571	    -11.26735580	     39.96733403	     23.83372225	     44.22514492
      5.75000000	      1.59430243	      1.39155057	     -6.52721657	      0.56119024	      0.86494504	      0.05194278	     16.92358323	      3.10169394	      2.47731015	     33.11467442	     15.18432377	    -16.43227365	      0.00000000	     24.27215656	      2.62572573	      5.36538264	     38.26037199	      5.68491833	    -26.62593524	      0.00000000	    -10.68864010	      2.39697648	      2.02250359	     15.15790896	     -9.64890092	     53.53190952	     21.94895082	     38.92261989	      3.36664516	    -11.71141000	     40.86038985	     23.99881003	     44.10694234
      5.76666670	      0.47404037	      1.45343891	     -6.35872146	      0.55036524	      0.87070341	      0.04930650	     16.63122928	      3.05535813	      2.15915958	     29.16863985	     13.66748774	    -15.54530508	      0.00000000	     24.35245214	      2.30245658	      4.30797685	     37.09371356	      4.89943976	    -26.36749738	      0.00000000	    -10.06502285	      2.15022491	      1.72218184	     15.70955833	     -9.39911373	     53.11111318	     22.29521516	     39.16482739	      3.61752204	    -11.93467307	     40.95982553	     24.06968798	     44.11214886
      5.78333330	     -0.33155496	      1.56946134	     -6.31995337	      0.54313380	      0.87880513	      0.04971365	     16.05551839	      3.04961188	      2.22249339	     25.22152305	     12.45088679	    -14.76414362	      0.00000000	     24.10463785	      2.06379486	      3.06981339	     36.73855789	      4.01671436	    -26.31103532	      0.00000000	     -9.52750544	      1.80105395	      1.49422611	     16.07591396	     -8.98826044	     52.81867641	     22.57550393	     39.33244271	      3.99178374	    -12.34495689	     40.98358089	     24.11554022	     44.12227508
      5.80000000	     -0.23172896	      1.57616390	     -6.30727025	      0.53687033	      0.88906531	      0.04793586	     14.39460972	      2.99507559	      2.41026990	     21.30867088	     10.17634461	    -15.56475842	      0.00000000	     22.65074159	      2.11454289	      2.39434510	     36.71023336	      1.51399899	    -28.02202658	      0.00000000	    -10.26608562	      1.59396025	      2.22624548	     15.22808821	     -9.03652737	     43.86499017	     24.25667882	     47.16254468	      4.93523155	    -12.49114050	     42.64833692	     24.90230493	     44.45458294
      5.81666670	     -0.09236076	      1.67906426	     -6.32664228	      0.52729438	      0.89124683	      0.04824575	     13.35049485	      2.86182910	      2.34960025	     18.45257055	     10.07310250	    -14.50075121	      0.00000000	     22.07685753	      2.08037439	      1.49132649	     38.65067603	      1.24221857	    -27.36936452	      0.00000000	    -10.94535586	      1.27941174	      1.74548733	     16.06397065	     -8.68440156	     43.73121381	     24.19293573	     48.30729952	      5.31368538	    -12.56242763	     42.67396800	     24.48827603	     44.45367290
      5.83333330	     -0.36958861	      1.81963849	     -6.26071076	      0.52176835	      0.89379721	      0.04777314	     12.75691092	      2.71636404	      2.38870818	     16.14245750	      9.94908327	    -14.18407020	      0.00000000	     21.72601116	      2.10837002	      0.58424538	     41.92203269	     -0.04796695	    -26.85955107	      0.00000000	    -10.67941494	      1.02332817	      1.66439021	     16.25554469	     -8.55369923	     43.59962580	     24.21504326	     48.54004078	      5.50978377	    -12.62503103	     42.66732417	     24.54499701	     44.46762306
      5.85000000	     -0.21264573	      1.73901911	     -5.87400407	      0.51319235	      0.89471672	      0.04480139	     11.69335908	      2.64892788	      2.26827030	     13.63139461	     10.75078724	    -13.30726300	      0.00000000	     20.62616686	      2.25010504	      0.30628204	     45.79585072	      0.95543493	    -26.99174322	      0.00000000	    -11.08740805	      1.13223168	      1.08018080	     16.52262829	     -8.39513691	     42.20449239	     24.22880460	     50.16818071	      5.69409414	    -12.66588949	     42.61019615	     24.77651451	     44.61227809
      5.86666670	     -0.39758521	      1.43651770	     -5.71528279	      0.50718001	      0.89342350	      0.04317586	     11.29626927	      2.94857107	      2.88321902	     11.77390845	     11.11135452	    -13.02217278	      0.00000000	     19.84207540	      2.02230286	      0.29172646	     49.46499055	      1.15147157	    -27.30446757	      0.00000000	    -10.83177887	      1.42361897	      0.99532841	     16.47126144	     -8.48500812	     41.95813949	     24.21579922	     50.36948416	      5.83607961	    -12.61310026	     42.52303746	     24.82739144	     44.62615115
      5.88333330	     -0.15236190	      0.95144600	     -5.65436109	      0.49763461	      0.89521002	      0.04229565	     10.48710829	      3.38474922	      2.53432405	      9.89637184	     11.13638400	    -12.01277018	      0.00000000	     18.22727705	      1.78873240	      0.30434925	     53.01327037	      0.93511634	    -26.27202841	      0.00000000	    -11.48621814	      1.93651980	      0.68818317	     16.51271006	     -8.47265214	     39.85605004	     24.55868997	     51.82063727	      5.79956269	    -12.33491541	     41.31736869	     24.84140287	     44.69693190
